<?xml version="1.0" standalone="no"?>
<!DOCTYPE svg PUBLIC "-//W3C//DTD SVG 20010904//EN"
 "http://www.w3.org/TR/2001/REC-SVG-20010904/DTD/svg10.dtd">
<svg version="1.0" xmlns="http://www.w3.org/2000/svg"
 width="354.000000pt" height="354.000000pt" viewBox="0 0 354.000000 354.000000"
 preserveAspectRatio="xMidYMid meet">
<metadata>
Created by potrace 1.14, written by Peter Selinger 2001-2017
</metadata>
<g transform="translate(0.000000,354.000000) scale(0.100000,-0.100000)"
fill="#000000" stroke="none">
<path d="M1819 3116 c-2 -2 -56 -6 -119 -9 -63 -3 -122 -8 -130 -11 -8 -3 -28
-7 -45 -9 -16 -3 -50 -10 -75 -17 -25 -7 -52 -14 -60 -15 -8 -2 -16 -4 -17 -5
-2 -2 -7 -4 -13 -5 -5 -1 -11 -3 -12 -4 -2 -2 -13 -4 -25 -7 -12 -2 -51 -17
-88 -34 -36 -16 -68 -30 -71 -30 -3 0 -11 -6 -19 -12 -7 -7 -25 -22 -41 -33
-15 -11 -36 -28 -46 -37 -10 -10 -20 -18 -23 -18 -7 0 -185 -180 -218 -220
-15 -19 -27 -40 -27 -48 0 -7 -4 -11 -9 -8 -15 10 -146 -272 -139 -302 0 -4
-1 -14 -5 -22 -17 -44 -29 -95 -33 -142 -9 -97 -10 -123 -2 -140 5 -9 4 -19
-1 -22 -4 -3 -7 -18 -5 -33 7 -48 15 -117 19 -153 2 -19 7 -60 10 -91 l6 -55
-55 -55 c-31 -30 -56 -60 -56 -67 0 -7 -7 -15 -15 -18 -8 -4 -15 -10 -15 -15
0 -5 -12 -28 -27 -52 -14 -23 -25 -44 -24 -46 2 -2 -1 -7 -6 -10 -10 -6 -40
-83 -49 -122 -15 -67 -17 -88 -17 -136 0 -28 4 -60 8 -70 4 -10 9 -24 11 -32
1 -8 12 -27 23 -42 12 -16 21 -32 21 -38 0 -5 14 -21 30 -34 17 -14 30 -29 30
-34 0 -4 13 -14 28 -21 16 -6 38 -21 49 -31 12 -11 23 -17 26 -14 3 3 18 -4
33 -16 14 -11 30 -18 35 -15 5 3 9 2 9 -3 0 -8 62 -33 88 -35 6 -1 12 -5 12
-10 0 -5 4 -7 8 -4 5 3 21 -1 35 -9 15 -8 30 -14 32 -15 10 -1 31 -8 93 -30
34 -11 70 -23 80 -25 9 -2 31 -8 47 -14 74 -24 103 -31 123 -31 11 0 23 -4 26
-9 7 -11 107 -33 154 -35 12 0 22 -3 22 -6 0 -4 7 -7 15 -7 8 0 15 4 15 9 0
10 -13 15 -53 22 -16 3 -36 11 -45 18 -13 11 -14 11 -8 -1 6 -9 0 -8 -17 4
-15 9 -30 14 -36 11 -5 -4 -15 -1 -23 6 -7 7 -18 14 -23 15 -6 1 -40 15 -77
32 -36 17 -71 31 -77 31 -11 0 -110 50 -121 60 -3 3 -36 21 -74 40 -37 19 -71
40 -73 47 -3 7 -11 13 -19 13 -8 0 -22 8 -32 18 -10 9 -39 36 -65 60 -26 23
-47 46 -47 50 0 4 -9 14 -20 22 -11 8 -20 20 -20 27 0 7 -4 13 -9 13 -15 0
-10 142 5 172 8 15 14 31 14 35 0 16 14 51 56 142 l44 94 25 -27 c14 -15 25
-31 25 -37 0 -11 58 -96 105 -154 41 -50 172 -185 180 -185 7 0 63 -39 83 -58
8 -7 18 -10 23 -7 5 4 9 2 9 -3 0 -10 76 -52 95 -52 7 0 15 -5 17 -11 3 -9 67
-29 148 -45 14 -3 33 -7 43 -10 61 -19 229 -30 297 -20 97 14 290 25 291 17 0
-3 3 -15 5 -26 3 -11 4 -45 3 -75 -4 -141 3 -310 15 -328 7 -11 37 -6 34 6 -1
4 22 56 52 116 52 106 79 146 100 146 6 0 10 4 10 10 0 16 24 1 36 -23 6 -12
27 -53 47 -90 33 -64 35 -74 32 -145 -4 -94 -12 -130 -36 -161 -11 -13 -19
-30 -19 -38 0 -8 -5 -11 -12 -7 -8 5 -9 2 -5 -9 4 -10 -1 -22 -13 -30 -11 -8
-17 -17 -14 -20 8 -8 41 9 68 34 11 11 24 19 28 19 5 0 7 4 4 9 -5 8 22 25 33
21 2 -1 7 2 10 7 3 5 29 26 58 46 29 21 63 51 77 68 14 16 30 29 36 29 6 0 9
4 6 9 -3 5 5 20 19 32 13 13 25 30 25 37 0 7 5 10 10 7 6 -3 10 1 10 9 0 9 5
16 10 16 6 0 10 6 10 14 0 8 4 16 9 18 5 2 23 23 40 48 17 25 50 72 74 105 23
33 42 64 42 68 0 4 7 12 15 17 8 5 11 10 6 10 -5 0 -2 8 6 18 8 9 26 37 39 62
13 25 29 48 34 52 7 5 7 8 0 8 -7 0 -7 3 0 8 11 8 47 79 51 102 2 8 8 16 13
18 6 2 11 12 11 23 0 10 5 19 12 19 6 0 9 3 6 6 -4 3 7 37 22 75 16 38 24 66
17 62 -8 -4 -8 -1 1 9 7 9 14 33 15 52 1 20 5 36 8 36 4 0 9 17 12 38 3 20 8
48 12 62 3 14 8 43 10 64 3 22 10 59 16 83 5 24 7 49 4 54 -4 5 -2 9 4 9 5 0
10 8 9 18 0 9 3 49 8 87 11 107 4 418 -11 433 -6 6 -35 -24 -35 -37 0 -5 -6
-16 -12 -23 -7 -7 -19 -25 -27 -40 -8 -15 -22 -36 -31 -45 -9 -10 -25 -33 -35
-50 -11 -18 -23 -33 -27 -33 -4 0 -8 -5 -8 -10 0 -11 -11 -26 -41 -58 -9 -9
-28 -35 -42 -58 -14 -22 -32 -41 -41 -41 -13 0 -14 3 -3 16 9 11 12 44 11 106
-1 50 -3 90 -4 90 -1 0 -3 25 -6 55 -4 56 -10 103 -17 130 -2 8 -7 32 -12 53
-4 20 -11 40 -16 43 -5 3 -9 15 -9 28 0 12 -4 26 -9 32 -5 5 -12 19 -16 32 -6
22 -5 23 37 18 23 -3 54 -8 68 -11 14 -3 35 -8 46 -10 12 -3 38 -12 58 -20 20
-8 36 -13 36 -10 0 3 14 -9 30 -27 17 -17 30 -37 30 -44 0 -8 5 -14 11 -14 5
0 8 -4 4 -9 -3 -5 0 -13 5 -16 14 -9 71 15 64 26 -3 5 1 9 9 9 21 0 33 47 28
110 -1 20 -46 71 -55 63 -3 -3 -6 -1 -6 5 0 11 -67 47 -82 44 -4 -1 -20 3 -35
9 -35 13 -213 29 -213 19 0 -8 -82 -5 -108 4 -12 4 -20 12 -17 17 4 5 1 9 -6
9 -7 0 -10 3 -6 6 7 7 -64 105 -109 151 -18 17 -29 34 -26 37 3 3 1 6 -4 6 -6
0 -32 20 -59 45 -28 25 -56 45 -62 45 -7 0 -13 4 -13 9 0 10 -131 87 -142 83
-5 -1 -8 1 -8 6 0 4 -15 13 -32 21 -18 7 -49 20 -68 29 -19 9 -37 16 -40 17
-3 0 -18 5 -35 11 -70 27 -131 42 -198 49 -27 3 -52 7 -56 10 -5 2 -10 3 -12
1z m549 -1797 c-7 -5 -9 -9 -4 -9 5 0 3 -7 -4 -15 -7 -8 -10 -15 -6 -15 6 0
-36 -42 -81 -80 -30 -26 -93 -70 -99 -70 -4 0 -23 -10 -43 -22 -20 -13 -40
-23 -46 -24 -5 0 -16 -2 -23 -2 -7 -1 -11 -5 -9 -9 3 -5 -17 -9 -44 -11 -46
-2 -63 8 -37 24 7 5 8 2 3 -7 -4 -8 0 -6 11 4 33 30 112 87 123 87 5 0 11 3
13 8 2 4 30 27 63 52 33 24 66 50 75 57 8 7 33 26 55 42 22 17 45 35 50 39 6
6 11 0 13 -16 2 -14 -2 -29 -10 -33z m354 -167 c-6 -2 -8 -10 -5 -18 7 -18
-16 -46 -30 -37 -5 3 -7 1 -3 -5 7 -12 -23 -82 -36 -82 -4 0 -8 -6 -8 -14 0
-8 -7 -17 -16 -20 -8 -3 -13 -10 -10 -15 4 -5 2 -11 -2 -13 -5 -1 -34 -36 -65
-77 -32 -40 -57 -70 -57 -67 0 3 -9 -3 -20 -14 -22 -22 -40 -26 -40 -10 0 7
-6 7 -20 0 -14 -8 -20 -8 -20 0 0 6 -4 8 -10 5 -5 -3 -10 0 -10 7 0 7 46 58
103 114 92 92 138 141 190 203 10 12 21 20 25 17 4 -2 9 5 9 16 2 24 26 43 32
26 2 -7 -1 -14 -7 -16z"/>
<path d="M1430 540 c0 -5 5 -10 10 -10 6 0 10 5 10 10 0 6 -4 10 -10 10 -5 0
-10 -4 -10 -10z"/>
</g>
</svg>
