<svg viewBox="130.9999999999999 78.46153846153845 786.0000000000001 575.3846153846155" xmlns="http://www.w3.org/2000/svg" xmlns:blush="http://design.blush" overflow="visible" xmlns:xlink="http://www.w3.org/1999/xlink" width="786.0000000000001px" height="575.3846153846155px"><g id="Master/Scene/3 Characters" stroke="none" stroke-width="1" fill="none" fill-rule="evenodd" blush:viewBox="115.27999999999997 61.913580246913625 791.2400000000001 582.4074074074074" blush:i="0"><g id="Background" blush:width="1053" blush:height="680" blush:component="Background" blush:i="0.0" blush:value="Wireframe 2" transform="scale(1 1)" blush:viewBox="136.89 90 779.2200000000001 484.2105263157894"><g id="Background/Wireframe 2" stroke="none" stroke-width="1" fill="none" fill-rule="evenodd" blush:viewBox="136.89 90 779.2200000000001 484.2105263157894" blush:i="0.0.0"><g id="Mobile3" transform="translate(723.000000, 91.000000)" blush:i="0.0.0.0"><rect id="Container" fill="#C7D1D9" x="0" y="0" width="147" height="280" rx="8" blush:i="0.0.0.0.0"/><circle id="Touch" fill="#FFF" cx="73" cy="248" r="15" blush:i="0.0.0.0.1"/><g id="Camera" transform="translate(58.000000, 15.000000)" fill="#FFF" blush:i="0.0.0.0.2"><circle id="Lens" cx="2" cy="2" r="2" blush:i="0.0.0.0.2.0"/><rect id="Sensor" x="9" y="0" width="21" height="4" rx="2" blush:i="0.0.0.0.2.1"/></g><g id="Rows" transform="translate(14.000000, 28.000000)" blush:i="0.0.0.0.3"><g id="Row" blush:i="0.0.0.0.3.0"><rect id="Container" fill="#FFF" x="0" y="0" width="119" height="50.765" rx="4" blush:i="0.0.0.0.3.0.0"/><g id="Text-Stuff" transform="translate(9.000000, 15.228000)" fill="#C7D1D9" blush:i="0.0.0.0.3.0.1"><rect id="Label" x="0" y="0" width="61" height="7.614" rx="3" blush:i="0.0.0.0.3.0.1.0"/><rect id="Label" x="0" y="12.69" width="40.945" height="7.614" rx="3" blush:i="0.0.0.0.3.0.1.1"/></g><g id="Check" transform="translate(99.282443, 18.380000)" blush:i="0.0.0.0.3.0.2"><circle id="Background" fill="#C7D1D9" cx="7" cy="7" r="7" blush:i="0.0.0.0.3.0.2.0"/><circle id="Indicator" fill="#F2F2F2" cx="7" cy="7" r="3" blush:i="0.0.0.0.3.0.2.1"/></g></g><g id="Row" transform="translate(0.000000, 59.000000)" blush:i="0.0.0.0.3.1"><rect id="Background" fill="#FFF" x="0" y="0" width="119" height="37.706" rx="4" blush:i="0.0.0.0.3.1.0"/><g id="Text" transform="translate(39.000000, 11.314027)" fill="#C7D1D9" blush:i="0.0.0.0.3.1.1"><rect id="Name" x="0" y="0" width="61" height="5.657" rx="2.829" blush:i="0.0.0.0.3.1.1.0"/><rect id="Name" x="0" y="9.428" width="40.945" height="5.657" rx="2.829" blush:i="0.0.0.0.3.1.1.1"/></g><circle id="Avatar" fill="#C5CFD6" cx="21" cy="18.857" r="12" blush:i="0.0.0.0.3.1.2"/></g><g id="Row" transform="translate(0.000000, 105.000000)" blush:i="0.0.0.0.3.2"><rect id="Container" fill="#FFF" x="0" y="0" width="119" height="37.706" rx="4" blush:i="0.0.0.0.3.2.0"/><g id="Text-Stuff" transform="translate(9.000000, 11.314027)" fill="#C7D1D9" blush:i="0.0.0.0.3.2.1"><rect id="Label" x="0" y="0" width="61" height="5.657" rx="2.829" blush:i="0.0.0.0.3.2.1.0"/><rect id="Label" x="0" y="9.428" width="40.945" height="5.657" rx="2.829" blush:i="0.0.0.0.3.2.1.1"/></g><g id="Check" transform="translate(99.282443, 11.856712)" blush:i="0.0.0.0.3.2.2"><circle id="Background" fill="#C7D1D9" cx="7" cy="7" r="7" blush:i="0.0.0.0.3.2.2.0"/><circle id="Indicator" fill="#F2F2F2" cx="7" cy="7" r="3" blush:i="0.0.0.0.3.2.2.1"/></g></g><g id="Row" transform="translate(0.000000, 151.000000)" blush:i="0.0.0.0.3.3"><rect id="Background" fill="#FFF" x="0" y="0" width="119" height="37.706" rx="4" blush:i="0.0.0.0.3.3.0"/><g id="Text" transform="translate(39.000000, 11.314027)" fill="#C7D1D9" blush:i="0.0.0.0.3.3.1"><rect id="Name" x="0" y="0" width="61" height="5.657" rx="2.829" blush:i="0.0.0.0.3.3.1.0"/><rect id="Name" x="0" y="9.428" width="40.945" height="5.657" rx="2.829" blush:i="0.0.0.0.3.3.1.1"/></g><circle id="Avatar" fill="#C5CFD6" cx="21" cy="18.857" r="12" blush:i="0.0.0.0.3.3.2"/></g></g></g><g id="Mobile3" transform="translate(219.000000, 114.000000)" blush:i="0.0.0.1"><rect id="Container" fill="#F2F2F2" x="0" y="0" width="159" height="302" rx="8" blush:i="0.0.0.1.0"/><circle id="Touch" fill="#FFF" cx="79" cy="268" r="15" blush:i="0.0.0.1.1"/><g id="Camera" transform="translate(64.000000, 16.000000)" fill="#FFF" blush:i="0.0.0.1.2"><circle id="Lens" cx="2" cy="2" r="2" blush:i="0.0.0.1.2.0"/><rect id="Sensor" x="9" y="0" width="21" height="4" rx="2" blush:i="0.0.0.1.2.1"/></g><g id="Rows" transform="translate(14.000000, 28.000000)" blush:i="0.0.0.1.3"><g id="Row" blush:i="0.0.0.1.3.0"><rect id="Background" fill="#FFF" x="0" y="0" width="131" height="54" rx="4" blush:i="0.0.0.1.3.0.0"/><g id="Text" transform="translate(39.000000, 16.200000)" fill="#C7D1D9" blush:i="0.0.0.1.3.0.1"><rect id="Name" x="0" y="0" width="73" height="8.1" rx="3" blush:i="0.0.0.1.3.0.1.0"/><rect id="Name" x="0" y="13.5" width="49" height="8.1" rx="3" blush:i="0.0.0.1.3.0.1.1"/></g><circle id="Avatar" fill="#C5CFD6" cx="21" cy="27" r="12" blush:i="0.0.0.1.3.0.2"/></g><g id="Row" transform="translate(0.000000, 62.000000)" blush:i="0.0.0.1.3.1"><rect id="Background" fill="#FFF" x="0" y="0" width="131" height="42" rx="4" blush:i="0.0.0.1.3.1.0"/><g id="Text" transform="translate(39.000000, 12.600000)" fill="#C7D1D9" blush:i="0.0.0.1.3.1.1"><rect id="Name" x="0" y="0" width="73" height="6.3" rx="3" blush:i="0.0.0.1.3.1.1.0"/><rect id="Name" x="0" y="10.5" width="49" height="6.3" rx="3" blush:i="0.0.0.1.3.1.1.1"/></g><circle id="Avatar" fill="#C5CFD6" cx="21" cy="21" r="12" blush:i="0.0.0.1.3.1.2"/></g><g id="Row" transform="translate(0.000000, 112.000000)" blush:i="0.0.0.1.3.2"><rect id="Background" fill="#FFF" x="0" y="0" width="131" height="42" rx="4" blush:i="0.0.0.1.3.2.0"/><g id="Text" transform="translate(39.000000, 12.600000)" fill="#C7D1D9" blush:i="0.0.0.1.3.2.1"><rect id="Name" x="0" y="0" width="73" height="6.3" rx="3" blush:i="0.0.0.1.3.2.1.0"/><rect id="Name" x="0" y="10.5" width="49" height="6.3" rx="3" blush:i="0.0.0.1.3.2.1.1"/></g><circle id="Avatar" fill="#AFB9C5" cx="21" cy="21" r="12" blush:i="0.0.0.1.3.2.2"/></g><g id="Row" transform="translate(0.000000, 162.000000)" blush:i="0.0.0.1.3.3"><rect id="Background" fill="#FFF" x="0" y="0" width="131" height="42" rx="4" blush:i="0.0.0.1.3.3.0"/><g id="Text" transform="translate(39.000000, 12.600000)" fill="#C7D1D9" blush:i="0.0.0.1.3.3.1"><rect id="Name" x="0" y="0" width="73" height="6.3" rx="3" blush:i="0.0.0.1.3.3.1.0"/><rect id="Name" x="0" y="10.5" width="49" height="6.3" rx="3" blush:i="0.0.0.1.3.3.1.1"/></g><circle id="Avatar" fill="#C5CFD6" cx="21" cy="21" r="12" blush:i="0.0.0.1.3.3.2"/></g></g></g><g id="Web" transform="translate(384.000000, 191.000000)" blush:i="0.0.0.2"><rect id="Container" fill="#F2F2F2" x="0" y="0" width="335" height="346" rx="8" blush:i="0.0.0.2.0"/><rect id="Background" fill="#FFF" x="249" y="43" width="70" height="81" rx="8" blush:i="0.0.0.2.1"/><g id="Profile-Info" transform="translate(259.000000, 58.000000)" fill="#C7D1D9" blush:i="0.0.0.2.2"><circle id="Avatar" cx="25" cy="16" r="16" blush:i="0.0.0.2.2.0"/><rect id="Name" x="0" y="36" width="50" height="6" rx="3" blush:i="0.0.0.2.2.1"/><rect id="Name" x="8" y="46" width="34" height="6" rx="3" blush:i="0.0.0.2.2.2"/></g><path d="M8,0 L327,0 C331.418278,-8.11624501e-16 335,3.581722 335,8 L335,27 L335,27 L0,27 L0,8 C-5.41083001e-16,3.581722 3.581722,8.11624501e-16 8,0 Z" id="Header" fill="#C5CFD6" blush:i="0.0.0.2.3"/><g id="Buttons" transform="translate(9.000000, 10.000000)" fill="#F2F2F2" blush:i="0.0.0.2.4"><circle id="buttons" cx="4" cy="4" r="4" blush:i="0.0.0.2.4.0"/><circle id="buttons" cx="16" cy="4" r="4" blush:i="0.0.0.2.4.1"/><circle id="buttons" cx="28" cy="4" r="4" blush:i="0.0.0.2.4.2"/></g><g id="Components" transform="translate(249.000000, 132.000000)" blush:i="0.0.0.2.5"><rect id="Background" fill="#FFF" x="0" y="0" width="70" height="194" rx="8" blush:i="0.0.0.2.5.0"/><g id="Rows" transform="translate(18.000000, 18.000000)" blush:i="0.0.0.2.5.1"><rect id="Data" fill="#C7D1D9" x="0" y="0" width="34" height="26" rx="4" blush:i="0.0.0.2.5.1.0"/><rect id="Data" fill="#AFB9C5" x="0" y="34" width="34" height="25" rx="4" blush:i="0.0.0.2.5.1.1"/><rect id="Data" fill="#C7D1D9" x="0" y="67" width="34" height="25" rx="4" blush:i="0.0.0.2.5.1.2"/><rect id="Data" fill="#C7D1D9" x="0" y="133" width="34" height="25" rx="4" blush:i="0.0.0.2.5.1.3"/><rect id="Data" fill="#C5CFD6" x="0" y="100" width="34" height="25" rx="4" blush:i="0.0.0.2.5.1.4"/></g></g><g id="Rows" transform="translate(16.000000, 44.000000)" blush:i="0.0.0.2.6"><g id="Row" blush:i="0.0.0.2.6.0"><rect id="Container" fill="#FFF" x="0" y="0" width="225" height="47" rx="4" blush:i="0.0.0.2.6.0.0"/><g id="Text-Stuff" transform="translate(9.000000, 14.100000)" fill="#C7D1D9" blush:i="0.0.0.2.6.0.1"><rect id="Label" x="0" y="0" width="167" height="7.05" rx="3" blush:i="0.0.0.2.6.0.1.0"/><rect id="Label" x="0" y="11.75" width="112.096" height="7.05" rx="3" blush:i="0.0.0.2.6.0.1.1"/></g><g id="Check" transform="translate(193.954198, 16.500000)" blush:i="0.0.0.2.6.0.2"><circle id="Background" fill="#C7D1D9" cx="7" cy="7" r="7" blush:i="0.0.0.2.6.0.2.0"/><circle id="Indicator" fill="#F2F2F2" cx="7" cy="7" r="3" blush:i="0.0.0.2.6.0.2.1"/></g></g><g id="Row" transform="translate(0.000000, 55.000000)" blush:i="0.0.0.2.6.1"><rect id="Container" fill="#FFF" x="0" y="0" width="225" height="39" rx="4" blush:i="0.0.0.2.6.1.0"/><g id="Text-Stuff" transform="translate(9.000000, 11.700000)" fill="#C7D1D9" blush:i="0.0.0.2.6.1.1"><rect id="Label" x="0" y="0" width="167" height="5.85" rx="2.925" blush:i="0.0.0.2.6.1.1.0"/><rect id="Label" x="0" y="9.75" width="112.096" height="5.85" rx="2.925" blush:i="0.0.0.2.6.1.1.1"/></g><g id="Check" transform="translate(193.954198, 12.500000)" blush:i="0.0.0.2.6.1.2"><circle id="Background" fill="#C7D1D9" cx="7" cy="7" r="7" blush:i="0.0.0.2.6.1.2.0"/><circle id="Indicator" fill="#F2F2F2" cx="7" cy="7" r="3" blush:i="0.0.0.2.6.1.2.1"/></g></g><g id="Row" transform="translate(0.000000, 102.000000)" blush:i="0.0.0.2.6.2"><rect id="Container" fill="#FFF" x="0" y="0" width="225" height="39" rx="4" blush:i="0.0.0.2.6.2.0"/><g id="Text-Stuff" transform="translate(9.000000, 11.700000)" fill="#C7D1D9" blush:i="0.0.0.2.6.2.1"><rect id="Label" x="0" y="0" width="167" height="5.85" rx="2.925" blush:i="0.0.0.2.6.2.1.0"/><rect id="Label" x="0" y="9.75" width="112.096" height="5.85" rx="2.925" blush:i="0.0.0.2.6.2.1.1"/></g><g id="Check" transform="translate(193.954198, 12.500000)" blush:i="0.0.0.2.6.2.2"><circle id="Background" fill="#C7D1D9" cx="7" cy="7" r="7" blush:i="0.0.0.2.6.2.2.0"/><circle id="Indicator" fill="#AFB9C5" cx="7" cy="7" r="3" blush:i="0.0.0.2.6.2.2.1"/></g></g><g id="Row" transform="translate(0.000000, 243.000000)" blush:i="0.0.0.2.6.3"><rect id="Container" fill="#FFF" x="0" y="0" width="225" height="39" rx="4" blush:i="0.0.0.2.6.3.0"/><g id="Text-Stuff" transform="translate(9.000000, 11.700000)" fill="#C7D1D9" blush:i="0.0.0.2.6.3.1"><rect id="Label" x="0" y="0" width="167" height="5.85" rx="2.925" blush:i="0.0.0.2.6.3.1.0"/><rect id="Label" x="0" y="9.75" width="112.096" height="5.85" rx="2.925" blush:i="0.0.0.2.6.3.1.1"/></g><g id="Check" transform="translate(193.954198, 12.500000)" blush:i="0.0.0.2.6.3.2"><circle id="Background" fill="#C7D1D9" cx="7" cy="7" r="7" blush:i="0.0.0.2.6.3.2.0"/><circle id="Indicator" fill="#F2F2F2" cx="7" cy="7" r="3" blush:i="0.0.0.2.6.3.2.1"/></g></g><g id="Row" transform="translate(0.000000, 196.000000)" blush:i="0.0.0.2.6.4"><rect id="Container" fill="#FFF" x="0" y="0" width="225" height="39" rx="4" blush:i="0.0.0.2.6.4.0"/><g id="Text-Stuff" transform="translate(9.000000, 11.700000)" fill="#C7D1D9" blush:i="0.0.0.2.6.4.1"><rect id="Label" x="0" y="0" width="167" height="5.85" rx="2.925" blush:i="0.0.0.2.6.4.1.0"/><rect id="Label" x="0" y="9.75" width="112.096" height="5.85" rx="2.925" blush:i="0.0.0.2.6.4.1.1"/></g><g id="Check" transform="translate(193.954198, 12.500000)" blush:i="0.0.0.2.6.4.2"><circle id="Background" fill="#C7D1D9" cx="7" cy="7" r="7" blush:i="0.0.0.2.6.4.2.0"/><circle id="Indicator" fill="#F2F2F2" cx="7" cy="7" r="3" blush:i="0.0.0.2.6.4.2.1"/></g></g><g id="Row" transform="translate(0.000000, 149.000000)" blush:i="0.0.0.2.6.5"><rect id="Container" fill="#FFF" x="0" y="0" width="225" height="39" rx="4" blush:i="0.0.0.2.6.5.0"/><g id="Text-Stuff" transform="translate(9.000000, 11.700000)" fill="#C7D1D9" blush:i="0.0.0.2.6.5.1"><rect id="Label" x="0" y="0" width="167" height="5.85" rx="2.925" blush:i="0.0.0.2.6.5.1.0"/><rect id="Label" x="0" y="9.75" width="112.096" height="5.85" rx="2.925" blush:i="0.0.0.2.6.5.1.1"/></g><g id="Check" transform="translate(193.954198, 12.500000)" blush:i="0.0.0.2.6.5.2"><circle id="Background" fill="#C7D1D9" cx="7" cy="7" r="7" blush:i="0.0.0.2.6.5.2.0"/><circle id="Indicator" fill="#F2F2F2" cx="7" cy="7" r="3" blush:i="0.0.0.2.6.5.2.1"/></g></g></g></g><g id="Graph" transform="translate(520.000000, 114.000000)" blush:i="0.0.0.3"><rect id="Value" fill="#C7D1D9" x="0" y="32" width="6" height="25" rx="3" blush:i="0.0.0.3.0"/><rect id="Value" fill="#C7D1D9" x="14" y="16" width="6" height="41" rx="3" blush:i="0.0.0.3.1"/><rect id="Value" fill="#C7D1D9" x="28" y="8" width="6" height="49" rx="3" blush:i="0.0.0.3.2"/><rect id="Value" fill="#C7D1D9" x="42" y="16" width="6" height="41" rx="3" blush:i="0.0.0.3.3"/><rect id="Value" fill="#C5CFD6" x="56" y="0" width="6" height="57" rx="3" blush:i="0.0.0.3.4"/></g><g id="Chart" transform="translate(801.000000, 467.000000)" blush:i="0.0.0.4"><path d="M37.7664728,37.179 C35.8448939,39.219 33.1227826,40.5 30.095205,40.5 C24.2778019,40.5 19.5618833,35.799 19.5618833,30 C19.5618833,24.201 24.2778019,19.5 30.095205,19.5 L30.095205,0 C13.5458518,0 0,13.503 0,30 C0,46.497 13.5458518,60 30.095205,60 C38.788205,60 46.6445583,56.334 52,50.502 L37.7664728,37.179 Z" id="Value" fill="#F2F2F2" blush:i="0.0.0.4.0"/><path d="M30,0 L30,19.5 C35.799,19.5 40.5,24.201 40.5,30 L60,30 C60,13.503 46.497,0 30,0 Z" id="Value" fill="#AFB9C5" blush:i="0.0.0.4.1"/><path d="M40.0969635,30 C40.0969635,33.4069834 38.4924726,36.4354131 36,38.3907651 L48.2618015,54 C55.3993366,48.4117535 60,39.7492845 60,30 L40.0969635,30 Z" id="Value" fill="#C5CFD6" blush:i="0.0.0.4.2"/></g><g id="Chart" transform="translate(141.000000, 231.000000)" blush:i="0.0.0.5"><path d="M29.0511329,28.5039 C27.5729953,30.0679 25.4790636,31.05 23.1501577,31.05 C18.6752322,31.05 15.0476025,27.4459 15.0476025,23 C15.0476025,18.5541 18.6752322,14.95 23.1501577,14.95 L23.1501577,0 C10.419886,0 0,10.3523 0,23 C0,35.6477 10.419886,46 23.1501577,46 C29.8370808,46 35.8804294,43.1894 40,38.7182 L29.0511329,28.5039 Z" id="Value" fill="#F2F2F2" blush:i="0.0.0.5.0"/><path d="M23,0 L23,14.95 C27.4459,14.95 31.05,18.5541 31.05,23 L46,23 C46,10.3523 35.6477,0 23,0 Z" id="Value" fill="#AFB9C5" blush:i="0.0.0.5.1"/><path d="M31.0727226,23 C31.0727226,25.5552376 29.8693544,27.8265598 28,29.2930738 L37.1963511,41 C42.5495024,36.8088151 46,30.3119634 46,23 L31.0727226,23 Z" id="Value" fill="#C5CFD6" blush:i="0.0.0.5.2"/></g><g id="Image" transform="translate(818.000000, 189.000000)" blush:i="0.0.0.6"><path d="M48.007,51.9862978 C48.003,51.9962978 47.999,52.0062978 47.993,52.0182978 C47.999,52.0082978 48.007,51.9682978 48.007,51.9862978" id="Fill-35" fill="#C5CFD6" blush:i="0.0.0.6.0"/><path d="M47.9976864,52.0014952 C47.9976864,52.0034952 47.9956864,52.0074952 47.9956864,52.0114952 C47.9956864,52.0014952 48.0136864,51.9714952 47.9976864,52.0014952" id="Fill-37" fill="#C5CFD6" blush:i="0.0.0.6.1"/><path d="M48.0671431,51.8323017 C48.0531431,51.8723017 48.0351431,51.9103017 48.0191431,51.9503017 C48.0271431,51.9303017 48.0351431,51.9143017 48.0431431,51.8943017 C47.8351431,52.4143017 47.9671431,52.0763017 48.0671431,51.8323017" id="Fill-39" fill="#C5CFD6" blush:i="0.0.0.6.2"/><path d="M48.0223751,51.95275 C48.0143751,51.97075 48.0063751,51.99075 47.9983751,52.00875 C47.9403751,52.12075 48.0223751,51.95275 48.0223751,51.95275" id="Fill-41" fill="#C5CFD6" blush:i="0.0.0.6.3"/><polygon id="Fill-43" fill="#C5CFD6" points="48 52.001 48 52.001 48 51.999" blush:i="0.0.0.6.4"/><path d="M47.999,52.002 C47.999,52 47.999,52 48.001,51.998 C47.999,52 47.999,52 47.999,52.002" id="Fill-45" fill="#C5CFD6" blush:i="0.0.0.6.5"/><path d="M47.9895117,52.0163509 C47.9775117,52.0403509 48.0455117,51.9243509 47.9895117,52.0163509" id="Fill-47" fill="#C5CFD6" blush:i="0.0.0.6.6"/><path d="M47.998,52.002 L48.002,51.998 C48,52 48,52.002 47.998,52.002" id="Fill-49" fill="#C5CFD6" blush:i="0.0.0.6.7"/><rect id="Photo-Background" fill="#C5CFD6" x="0" y="0" width="95" height="63" rx="4" blush:i="0.0.0.6.8"/><polygon id="Mountains" fill="#AFB9C5" points="36 18 8 63 64 63" blush:i="0.0.0.6.9"/><polygon id="Mountains" fill="#AFB9C5" points="63.5 30 39 63 88 63" blush:i="0.0.0.6.10"/><circle id="Sun" fill="#FFF" cx="74" cy="21" r="9" blush:i="0.0.0.6.11"/></g><g id="Image" transform="translate(219.000000, 527.000000) scale(-1, 1) translate(-219.000000, -527.000000) translate(148.000000, 480.000000)" blush:i="0.0.0.7"><path d="M71.007,76.9862978 C71.003,76.9962978 70.999,77.0062978 70.993,77.0182978 C70.999,77.0082978 71.007,76.9682978 71.007,76.9862978" id="Fill-35" fill="#C5CFD6" blush:i="0.0.0.7.0"/><path d="M70.9976864,77.0014952 C70.9976864,77.0034952 70.9956864,77.0074952 70.9956864,77.0114952 C70.9956864,77.0014952 71.0136864,76.9714952 70.9976864,77.0014952" id="Fill-37" fill="#C5CFD6" blush:i="0.0.0.7.1"/><path d="M71.0671431,76.8323017 C71.0531431,76.8723017 71.0351431,76.9103017 71.0191431,76.9503017 C71.0271431,76.9303017 71.0351431,76.9143017 71.0431431,76.8943017 C70.8351431,77.4143017 70.9671431,77.0763017 71.0671431,76.8323017" id="Fill-39" fill="#C5CFD6" blush:i="0.0.0.7.2"/><path d="M71.0223751,76.95275 C71.0143751,76.97075 71.0063751,76.99075 70.9983751,77.00875 C70.9403751,77.12075 71.0223751,76.95275 71.0223751,76.95275" id="Fill-41" fill="#C5CFD6" blush:i="0.0.0.7.3"/><polygon id="Fill-43" fill="#C5CFD6" points="71 77.001 71 77.001 71 76.999" blush:i="0.0.0.7.4"/><path d="M70.999,77.002 C70.999,77 70.999,77 71.001,76.998 C70.999,77 70.999,77 70.999,77.002" id="Fill-45" fill="#C5CFD6" blush:i="0.0.0.7.5"/><path d="M70.9895117,77.0163509 C70.9775117,77.0403509 71.0455117,76.9243509 70.9895117,77.0163509" id="Fill-47" fill="#C5CFD6" blush:i="0.0.0.7.6"/><path d="M70.998,77.002 L71.002,76.998 C71,77 71,77.002 70.998,77.002" id="Fill-49" fill="#C5CFD6" blush:i="0.0.0.7.7"/><rect id="Photo-Background" fill="#C7D1D9" x="0" y="0" width="142" height="94" rx="4" blush:i="0.0.0.7.8"/><polygon id="Mountains" fill="#AFB9C5" points="52.7257937 27 11.6707937 94 93.7807937 94" blush:i="0.0.0.7.9"/><polygon id="Mountains" fill="#C5CFD6" points="95.0557937 44.9464286 58.7607937 94 131.350794 94" blush:i="0.0.0.7.10"/><circle id="Sun" fill="#FFF" cx="110.5" cy="31.5" r="13.5" blush:i="0.0.0.7.11"/></g></g></g><g transform="translate(728.000000, 427.000000) scale(-1, 1) translate(-728.000000, -427.000000) translate(578.000000, 214.000000) scale(1 1)" blush:has-customizable-colors="true" blush:width="300" blush:height="426" id="Master/Pose/Standing" blush:component="Master/Pose/Standing" blush:i="0.1" blush:value="Standing" blush:viewBox="-1.2784090909090935 12.779999999999973 311.0795454545455 413.2199999999999"><g id="Master/Pose/Standing" stroke="none" stroke-width="1" fill="none" fill-rule="evenodd" blush:has-customizable-colors="true" blush:viewBox="-1.2784090909090935 12.779999999999973 311.0795454545455 413.2199999999999" blush:i="0.1.0"><g id="Head/Front" transform="translate(82.000000, 0.000000) scale(1 1)" blush:width="136" blush:height="104" blush:component="Head/Front" blush:i="0.1.0.0" blush:value="Hijab 1" blush:viewBox="36.04000000000002 28.17801047120419 60.51999999999998 76.23036649214659"><g id="Head/Front/Hijab 1" stroke="none" stroke-width="1" fill="none" fill-rule="evenodd" blush:viewBox="36.04000000000002 28.17801047120419 60.51999999999998 76.23036649214659" blush:i="0.1.0.0.0"><g id="Head" transform="translate(54.000000, 31.000000)" fill="#b28b67" blush:color="Skin-500" blush:i="0.1.0.0.0.0"><path d="M38.1433414,9.13393292 C43.9381521,19.9350547 43.249578,47.3329958 35.7603014,49.2634576 C32.773664,50.0333035 26.4113241,48.1475566 19.935865,44.2446031 L24,73 L0,73 L8.26160177,34.4893378 C3.65406109,29.0807313 0.535660132,22.452516 1.05677633,15.0254539 C2.55833022,-6.37502057 32.3485306,-1.66718886 38.1433414,9.13393292 Z" id="SKIN" blush:i="0.1.0.0.0.0.0"/></g><g id="Hijab" transform="translate(36.000000, 28.000000)" blush:i="0.1.0.0.0.1"><path d="M50.7350002,5.01147183 C50.1852708,4.68336774 49.0351409,3.99129844 48.4524743,3.74047035 C48.3145899,3.68011316 47.3491609,2.99135428 47.3231986,3 C46.5922497,3.24668063 44.475629,4.157139 44.2939574,4.94386372 C44.2657992,5.00348239 44.2381578,5.05940846 44.2112267,5.10828502 C43.9113039,5.65351385 43.6361163,6.21230459 43.373587,6.77787628 C42.7975078,8.01939475 42.3002198,9.31697358 41.8252774,10.6043474 C40.9001924,13.1115541 40.0965233,15.677171 39.3576307,18.2486288 C38.6053695,20.8663449 37.9669033,23.5146088 37.2521648,26.1431341 C36.2236827,29.9254283 34.9073547,33.6149377 33.8859767,37.3956877 C33.2337544,39.8097738 32.8709924,42.2521922 33.0422662,44.7368405 C33.0439454,44.7667169 33.0449141,44.7961906 33.0476266,44.826537 C33.0486599,44.8389576 33.0502099,44.8512438 33.0513078,44.8636644 C33.0804347,45.2456133 33.1219615,45.6285021 33.177309,46.0125322 C33.2257461,46.3409049 33.2743124,46.670486 33.3261079,47 C34.2590719,45.1396022 34.9713564,43.0896733 35.7272342,41.1440101 C35.8011816,40.9535392 35.8717061,40.7616583 35.940616,40.5691733 C36.1843517,40.1746025 36.4328666,39.7828514 36.6841585,39.3925774 C38.2688928,36.9315618 39.8598917,34.4796098 41.3795265,31.9740815 C44.1128024,27.4677025 46.8205682,22.8660544 50.061078,18.727928 C51.0179377,17.5059467 51.9970785,16.302697 52.9419258,15.0707121 C53.4795781,14.3696557 54.0032806,13.6568501 54.5099977,12.9313553 C54.872243,12.4125789 56.4471311,10.6043474 55.8768295,9.51791803 C55.585039,8.96205474 52.1610544,5.8627163 50.7350002,5.01147183 Z" id="Front" fill="#2C2C2C" blush:i="0.1.0.0.0.1.0"/><path d="M48.6260171,3.83116599 C49.1606177,4.01081921 48.9005286,2.8983607 48.3827244,2.5068843 C45.9838484,0.693257683 36.8126531,0.035129961 28.8316831,1.69188377 C23.4851811,2.80175357 17.2670643,5.56416284 12.9966544,9.11545816 C9.14699464,12.3169592 6.49948445,17.4491331 5.13642247,22.407675 C3.70525344,27.6142408 3.48849539,33.0422873 4.28584125,38.381368 C4.46101123,39.5541291 4.83740954,40.6717368 5.04712657,41.8196221 C5.28329677,43.1122936 5.40444175,44.3568809 5.8254551,45.6145396 C6.08327479,46.3844871 6.52139715,47.1392958 6.74137959,47.9136449 C6.99248728,48.7972339 6.8394274,49.6146653 6.65629515,50.5133931 C6.35787446,51.9781941 5.98785913,53.4399939 5.46202016,54.8389709 C4.67237336,56.9397371 3.71413697,58.9072548 3.11334736,61.0872499 C2.31396158,63.9879079 -1.02991389,73.427136 1.41378875,76 L47.9323913,76 C46.761016,72.8047679 43.2449088,69.0442856 42.533108,65.623838 C42.1138713,63.608903 41.9144197,59.2085647 41.8705285,59.0486397 C40.8222264,51.8223372 38.7753261,48.3714635 37.4933414,47.1190983 C36.2113566,45.8667332 34.5038477,45.4816245 34.4158679,44.3952949 C34.0522355,39.9023228 35.8388772,35.5973526 37.1489671,31.4041565 C38.710362,26.4065336 39.854626,21.2849322 41.464321,16.3042488 C42.1771089,14.098711 45.8502346,2.8983607 48.6260171,3.83116599 Z" id="Turban" fill="#8991DC" blush:i="0.1.0.0.0.1.1"/><path d="M14.373523,47.8804331 C23.9808594,50.889665 22.9106953,57.1023672 35.0112076,63.394114 L34,64.0068145 C23.4044272,59.6340646 20.9275677,50.2553327 13.6694535,48.7363176 L14.373523,47.8804331 Z M22.2134556,15.2923054 C23.6982144,26.5510679 24.1316878,32.9820818 31.8664459,45.2976376 L31.0435239,45.5492301 C23.0831253,34.8261446 21.8212801,26.0740972 21.4451908,15.3541394 L22.2134556,15.2923054 Z M8.78209035,23.3643083 C12.0510625,31.2963757 13.5415304,35.9803784 22.6701438,42.3991504 L21.9652448,42.892726 C12.9031248,37.7568562 10.2641419,31.6306096 8.09450288,23.6947526 L8.78209035,23.3643083 Z M32.3160356,9 C30.5618427,14.565951 30.1845546,17.5370354 30.5618427,25.1421085 L29.7013199,25.1421085 C28.0937737,17.9652054 29.5245027,11.2089071 31.2344582,9 L32.3160356,9 Z" id="Shade" fill-opacity=".2" fill="#000" blush:i="0.1.0.0.0.1.2"/></g></g></g><g id="Bottom/Standing" transform="translate(0.000000, 187.000000) scale(1 1)" blush:width="300" blush:height="239" blush:component="Bottom/Standing" blush:i="0.1.0.1" blush:value="Shorts" blush:viewBox="84 -0.6005025125627981 152.99999999999997 240.2010050251256"><g id="Bottom/Standing/Shorts" stroke="none" stroke-width="1" fill="none" fill-rule="evenodd" blush:viewBox="84 -0.6005025125627981 152.99999999999997 240.2010050251256" blush:i="0.1.0.1.0"><polygon id="SKIN" fill="#b28b67" points="128 9.9475983e-14 165.630838 123.024171 183.860154 227.648304 198.153197 227.648304 178.890974 9.9475983e-14" blush:color="Skin-500" blush:i="0.1.0.1.0.0"/><polygon id="Shadow" fill-opacity=".1" fill="#000" points="128 9.9475983e-14 165.630838 123.024171 183.860154 227.648304 198.153197 227.648304 178.890974 9.9475983e-14" blush:i="0.1.0.1.0.1"/><path d="M114.537727,0 C117.093705,67.5468821 114.085665,102.388787 113.513606,108.525715 C112.941548,114.662643 105.108196,154.454812 86.5636874,229.708469 L101.793992,224.477699 C131.10186,155.458959 141.088936,119.5887 144.450326,110.525715 C147.811717,101.46273 156.739403,64.6208249 171.233385,0 L114.537727,0 Z" id="SKIN" fill="#b28b67" blush:color="Skin-500" blush:i="0.1.0.1.0.2"/><g id="Left" transform="translate(85.000000, 218.000000)" fill="#E4E4E4" blush:i="0.1.0.1.0.3"><path d="M1.67813181,6.40192425 C0.559377268,9.38841089 0,11.6229931 0,13.1056708 C0,14.908957 0.300414205,17.5404001 0.901242614,21 C2.99318117,21 21.7937852,21 57.3030548,21 C58.768738,16.1545073 57.9226607,13.5385816 54.7648228,13.1522232 C51.606985,12.7658647 48.9837155,12.4170139 46.8950143,12.1056708 L20.6799926,0.41888346 C20.1755635,0.194006431 19.584344,0.4206282 19.359467,0.925057349 C19.35562,0.933686736 19.3518954,0.94237021 19.3482945,0.951105155 L17.6632131,5.03869504 L17.6632131,5.03869504 C14.7398812,6.40265216 12.3643706,7.08463071 10.5366811,7.08463071 C9.05172687,7.08463071 7.00099246,6.48490544 4.38447792,5.28545491 L4.38448339,5.28544297 C3.38038273,4.82514778 2.19325534,5.26598921 1.73296014,6.27008987 C1.71312074,6.31336808 1.69483298,6.35734088 1.67813181,6.40192425 Z" id="shoe" blush:i="0.1.0.1.0.3.0"/></g><g id="Right" transform="translate(179.000000, 218.000000)" fill="#E4E4E4" blush:i="0.1.0.1.0.4"><path d="M1.67813181,6.40192425 C0.559377268,9.38841089 0,11.6229931 0,13.1056708 C0,14.908957 0.300414205,17.5404001 0.901242614,21 C2.99318117,21 21.7937852,21 57.3030548,21 C58.768738,16.1545073 57.9226607,13.5385816 54.7648228,13.1522232 C51.606985,12.7658647 48.9837155,12.4170139 46.8950143,12.1056708 L20.6799926,0.41888346 C20.1755635,0.194006431 19.584344,0.4206282 19.359467,0.925057349 C19.35562,0.933686736 19.3518954,0.94237021 19.3482945,0.951105155 L17.6632131,5.03869504 L17.6632131,5.03869504 C14.7398812,6.40265216 12.3643706,7.08463071 10.5366811,7.08463071 C9.05172687,7.08463071 7.00099246,6.48490544 4.38447792,5.28545491 L4.38448339,5.28544297 C3.38038273,4.82514778 2.19325534,5.26598921 1.73296014,6.27008987 C1.71312074,6.31336808 1.69483298,6.35734088 1.67813181,6.40192425 Z" id="shoe" blush:i="0.1.0.1.0.4.0"/></g><polygon id="Bottom" fill="#56919c" points="123 0 139 62.6795201 187.870318 62.6795201 180.583554 0" blush:color="Bottom-700" blush:i="0.1.0.1.0.5"/><path d="M114,-3.55271368e-15 C108.735439,15.7805461 107.735439,36.6737195 111,62.6795201 L160.870318,62.6795201 L174.583554,-3.55271368e-15 L114,-3.55271368e-15 Z" id="Bottom" fill="#89c5cc" blush:color="Bottom-500" blush:i="0.1.0.1.0.6"/></g></g><g id="Body" transform="translate(22.000000, 82.000000) scale(1 1)" blush:width="256" blush:height="187" blush:component="Body" blush:i="0.1.0.2" blush:value="Trench Coat" blush:viewBox="-1.2800000000000011 -0.6404109589041127 252.15999999999994 226.7054794520548"><g id="Body/Trench Coat" stroke="none" stroke-width="1" fill="none" fill-rule="evenodd" blush:viewBox="-1.2800000000000011 -0.6404109589041127 252.15999999999994 226.7054794520548" blush:i="0.1.0.2.0"><path d="M54.3748075,70.4422362 L71.7206892,74.8517457 C48.5010655,113.888004 36.0840272,134.518222 34.4695742,136.742401 C30.8370549,141.746803 33.4753713,151.405575 34.3717289,156.466114 C27.0159775,157.777312 30.4552622,146.986888 21.1392043,148.78923 C12.6359386,150.434324 5.23841582,155.412199 -2.21044035,147.785504 C-3.12623345,146.847846 -3.68533756,144.037711 -0.329858103,142.787288 C8.0298649,139.672029 20.4540206,133.669529 22.5472206,131.196025 C25.4016727,127.82296 36.0108683,107.571697 54.3748075,70.4422362 L54.3748075,70.4422362 Z M197.692975,90.2442388 L227.879596,115.83589 C236.347145,118.768177 243.354953,122.169788 248.90302,126.040723 C250.183668,127.382731 251.660283,130.022417 246.018183,129.189525 C240.376083,128.356632 234.403982,127.734299 233.485976,129.614404 C232.56797,131.49451 235.838922,134.048404 234.074175,136.548369 C232.897677,138.215012 228.219551,133.502554 220.039797,122.410996 L189.442799,107.140857 L197.692975,90.2442388 Z" id="SKIN" fill="#b28b67" transform="translate(123.586250, 113.509597) rotate(-4.000000) translate(-123.586250, -113.509597)" blush:color="Skin-500" blush:i="0.1.0.2.0.0"/><path d="M138.264162,2.04144427 C153.1728,32.8586321 173.34952,62.4239679 203.321564,87.6788376 C207.426219,87.3835185 211.889688,88.0634542 216.675075,89.6758318 C219.030261,90.4693828 220.296216,93.0219384 219.502665,95.3771242 C219.041858,96.7447568 217.987913,97.7450999 216.723906,98.188165 C217.638754,98.8563073 218.562849,99.520867 219.495159,100.181671 L211.447983,116.609623 C177.58505,99.7255288 145.757134,86.9958405 131.253857,59.1215578 C126.386182,49.766228 128.033751,17.9882599 127.569134,6.42756866 L138.264162,2.04144427 Z" id="Back-Arm" fill="#28aa4d" blush:color="Top-700" blush:i="0.1.0.2.0.1"/><path d="M90,113.909745 C121.438326,117.363418 146.183737,117.363418 164.236234,113.909745 C166.472817,113.481858 166.374598,103.840401 165.337385,101.207228 C149.185283,60.2018743 138.560302,30.1840325 138.560302,1.70263734 C135.596594,3.25072994 130.409827,3.48273097 123,2.39864042 C103.086202,31.7496339 93.9325378,65.4265407 90,113.909745 Z" id="Shirt" fill="#191847" blush:i="0.1.0.2.0.2"/><path d="M126.348425,-1.0658141e-14 C123,44.2807404 169.249642,140.9549 153.190593,223.518112 C123.507857,230.146789 81.1319105,209.522766 39.8828129,226 C41.4177174,192.750378 72.1641281,153.689543 84.1591577,118.756122 C83.0907846,117.752921 82.5343434,116.247171 82.8078928,114.695795 L83.3288374,111.741372 C83.6816959,109.740212 85.3063314,108.28273 87.2249777,108.053567 C87.5631559,106.554137 87.8526566,105.063334 88.0917371,103.583451 C90.1104671,91.0877276 86.6615358,78.8352569 86.8232868,66.8032625 C70.7430616,80.5217718 56.3180199,104.211352 43.5479488,137.871041 L43.5479488,137.871041 L24.6611622,132.313477 C25.3819892,129.635524 26.1286459,126.990471 26.9011324,124.378317 C24.72195,123.144957 22.1728798,117.466228 24.0066041,116.516161 C25.8996562,115.535355 27.905105,114.844989 30.0170446,114.438594 C47.3349841,62.2796711 75.6543384,24.1331607 114.975674,-4.19220214e-13 L114.975674,-4.19220214e-13 Z" id="Coat-Front" fill="#43d26c" blush:color="Top-500" blush:i="0.1.0.2.0.3"/><polygon id="Shade-Lapel" fill-opacity=".1" fill="#000" points="119.105759 1 113.946604 16.8654451 124.335997 28.7590435 114.946604 38.1055065 137.662251 77 109.883587 38.1832119 119.105759 28.7590435 109.883587 18.2484583" blush:i="0.1.0.2.0.4"/><path d="M137,130 C139.209139,130 141,131.790861 141,134 C141,136.209139 139.209139,138 137,138 C134.790861,138 133,136.209139 133,134 C133,131.790861 134.790861,130 137,130 Z M136,107 C138.209139,107 140,108.790861 140,111 C140,113.209139 138.209139,115 136,115 C133.790861,115 132,113.209139 132,111 C132,108.790861 133.790861,107 136,107 Z M131,84 C133.209139,84 135,85.790861 135,88 C135,90.209139 133.209139,92 131,92 C128.790861,92 127,90.209139 127,88 C127,85.790861 128.790861,84 131,84 Z" id="Buttons" fill-opacity=".4" fill="#000" blush:i="0.1.0.2.0.5"/></g></g></g></g><g transform="translate(378.000000, 214.000000) scale(1 1)" blush:has-customizable-colors="true" blush:width="300" blush:height="426" id="Master/Pose/Sitting" blush:component="Master/Pose/Sitting" blush:i="0.2" blush:value="Sitting" blush:viewBox="-5.539772727272748 83.07 264.2045454545455 342.92999999999995"><g id="Master/Pose/Sitting" stroke="none" stroke-width="1" fill="none" fill-rule="evenodd" blush:has-customizable-colors="true" blush:viewBox="-5.539772727272748 83.07 264.2045454545455 342.92999999999995" blush:i="0.2.0"><g id="Head/Front" transform="translate(38.000000, 73.000000) scale(1 1)" blush:width="136" blush:height="104" blush:component="Head/Front" blush:i="0.2.0.0" blush:value="Long" blush:viewBox="36.72 26.816753926701566 64.59999999999998 77.59162303664922"><g id="Head/Front/Long" stroke="none" stroke-width="1" fill="none" fill-rule="evenodd" blush:viewBox="36.72 26.816753926701566 64.59999999999998 77.59162303664922" blush:i="0.2.0.0.0"><path d="M74.5,27 C85.2821207,27 94.2105014,34.9368049 95.7615049,45.2867779 C99.2080531,57.9860871 103.701616,86.5432912 99.1172687,91.0224659 L70.1172687,91.0224659 L70.1089864,90.8685463 C59.3601277,89.6792412 51,80.5659268 51,69.5 L51,48.5 C51,36.6258779 60.6258779,27 72.5,27 L74.5,27 Z" id="Hair-Back" fill="#181658" blush:color="Hair-500" blush:i="0.2.0.0.0.0"/><g id="Head" transform="translate(54.000000, 31.000000)" fill="#b28b67" blush:color="Skin-500" blush:i="0.2.0.0.0.1"><path d="M38.1433414,9.13393292 C43.9381521,19.9350547 43.249578,47.3329958 35.7603014,49.2634576 C32.773664,50.0333035 26.4113241,48.1475566 19.935865,44.2446031 L24,73 L0,73 L8.26160177,34.4893378 C3.65406109,29.0807313 0.535660132,22.452516 1.05677633,15.0254539 C2.55833022,-6.37502057 32.3485306,-1.66718886 38.1433414,9.13393292 Z" id="SKIN" blush:i="0.2.0.0.0.1.0"/></g><path d="M73.0014183,28 C84.581449,28 88.2365853,33.3883223 91.3486809,37.9630857 C89.0214598,45.9483908 79.9899431,47.1322506 71.9650913,52.1099145 C71.0199697,51.3410485 69.8137784,50.8804131 68.5,50.8804131 C65.4624339,50.8804131 63,53.3428469 63,56.3804131 C63,59.4179792 65.4624339,61.8804131 68.5,61.8804131 C68.5838976,61.8804131 68.6673564,61.8785346 68.7503367,61.8748173 C69.8557449,73.7527524 69.4127451,87.3172545 66.1172687,90.5371269 L37.1172687,90.5371269 C35.5014749,62.4634848 51.1172687,73.3348557 51.1172687,46.9027926 C52.0907327,45.9516616 53.010584,45.010258 53.9207807,44.19836 L53.888877,43.4207004 C58.9105508,33.1402335 65.2813979,28 73.0014183,28 Z" id="Hair-Front" fill="#181658" blush:color="Hair-500" blush:i="0.2.0.0.0.2"/></g></g><g id="Bottom/Sitting" transform="translate(-44.000000, 260.000000) scale(1 1)" blush:width="300" blush:height="239" blush:component="Bottom/Sitting" blush:i="0.2.0.1" blush:value="Baggy Pants" blush:viewBox="52.5 -0.6005025125627981 295.5 172.64447236180902"><g id="Bottom/Sitting/Baggy Pants" stroke="none" stroke-width="1" fill="none" fill-rule="evenodd" blush:viewBox="52.5 -0.6005025125627981 295.5 172.64447236180902" blush:i="0.2.0.1.0"><g id="Objects/Seat" transform="translate(10.000000, 42.000000) scale(1 1)" blush:width="232" blush:height="124" blush:component="Objects/Seat" blush:i="0.2.0.1.0.0" blush:value="Ball" blush:viewBox="38.28 -15.209737827715358 155.44 147.45318352059925"><g id="Objects/Seat/Ball" stroke="none" stroke-width="1" fill="none" fill-rule="evenodd" blush:viewBox="38.28 -15.209737827715358 155.44 147.45318352059925" blush:i="0.2.0.1.0.0.0"><ellipse id="Ballsy-Ball" fill="#C5CFD6" cx="116" cy="58.5" rx="77" ry="73.5" blush:i="0.2.0.1.0.0.0.0"/></g></g><path d="M299.158964,161 C279.443095,136.924175 266.102867,119.075435 259.13828,107.453779 C247.213216,87.5546842 237.453121,69.8481647 234.373078,63.0843539 C227.028322,46.9551796 251.281896,39.4026181 256.77103,46.9258 C265.079054,58.3124345 282.822044,94.1429674 310,154.417399 L299.158964,161 Z" id="SKIN" fill="#b28b67" blush:color="Skin-500" blush:i="0.2.0.1.0.1"/><path d="M258.757567,154 L222.065197,61.6367769 C214.217429,44.7995771 252.115758,33.7320765 257.883274,41.5677718 C270.977322,59.3572261 302.098846,129.534043 306,134.834115 L258.757567,154 Z" id="LegLower" fill="#56919c" blush:color="Bottom-700" blush:i="0.2.0.1.0.2"/><path d="M189.237285,155.164363 C188.230648,142.563747 186.360443,98.9430419 188.231659,78.7526333 C188.769372,72.9507196 189.335888,67.3411998 189.906801,62.0789726 C191.603754,46.4377715 220.605851,46.9321998 218.302721,61.7921247 C212.567016,98.799211 202.471523,150.6625 201.747941,155.14378 C200.733811,161.424485 189.869924,163.083457 189.237285,155.164363 Z" id="SKIN" fill="#b28b67" transform="translate(202.932881, 105.497494) rotate(39.000000) translate(-202.932881, -105.497494)" blush:color="Skin-500" blush:i="0.2.0.1.0.3"/><g id="Left" transform="translate(184.316987, 147.977241) rotate(30.000000) translate(-184.316987, -147.977241) translate(155.316987, 137.477241)" fill="#E4E4E4" blush:i="0.2.0.1.0.4"><path d="M1.67813181,6.40192425 C0.559377268,9.38841089 4.54747351e-13,11.6229931 4.54747351e-13,13.1056708 C4.54747351e-13,14.908957 0.300414205,17.5404001 0.901242614,21 C2.99318117,21 21.7937852,21 57.3030548,21 C58.768738,16.1545073 57.9226607,13.5385816 54.7648228,13.1522232 C51.606985,12.7658647 48.9837155,12.4170139 46.8950143,12.1056708 L20.6799926,0.41888346 C20.1755635,0.194006431 19.584344,0.4206282 19.359467,0.925057349 C19.35562,0.933686736 19.3518954,0.94237021 19.3482945,0.951105154 L17.6632131,5.03869504 L17.6632131,5.03869504 C14.7398812,6.40265216 12.3643706,7.08463071 10.5366811,7.08463071 C9.05172687,7.08463071 7.00099246,6.48490544 4.38447792,5.28545491 L4.38448339,5.28544297 C3.38038273,4.82514778 2.19325534,5.26598921 1.73296014,6.27008987 C1.71312074,6.31336808 1.69483298,6.35734088 1.67813181,6.40192425 Z" id="shoe" blush:i="0.2.0.1.0.4.0"/></g><g id="Right" transform="translate(289.000000, 151.000000)" fill="#E4E4E4" blush:i="0.2.0.1.0.5"><path d="M1.67813181,6.40192425 C0.559377268,9.38841089 0,11.6229931 0,13.1056708 C0,14.908957 0.300414205,17.5404001 0.901242614,21 C2.99318117,21 21.7937852,21 57.3030548,21 C58.768738,16.1545073 57.9226607,13.5385816 54.7648228,13.1522232 C51.606985,12.7658647 48.9837155,12.4170139 46.8950143,12.1056708 L20.6799926,0.41888346 C20.1755635,0.194006431 19.584344,0.4206282 19.359467,0.925057349 C19.35562,0.933686736 19.3518954,0.94237021 19.3482945,0.951105155 L17.6632131,5.03869504 L17.6632131,5.03869504 C14.7398812,6.40265216 12.3643706,7.08463071 10.5366811,7.08463071 C9.05172687,7.08463071 7.00099246,6.48490544 4.38447792,5.28545491 L4.38448339,5.28544297 C3.38038273,4.82514778 2.19325534,5.26598921 1.73296014,6.27008987 C1.71312074,6.31336808 1.69483298,6.35734088 1.67813181,6.40192425 Z" id="shoe" blush:i="0.2.0.1.0.5.0"/></g><path d="M208.862091,66.2500522 C178.365272,61.2817352 157.938089,57.8844191 147.580542,56.0581041 C118.057451,50.8523866 109.448266,34.9653306 114.538476,0.302228659 L168.93427,0.302228659 C176.132679,2.38099361 206.210425,15.2374805 259.167508,38.8716893 C268.695532,43.6015333 266.921101,57.5474982 265.179547,62.1420768 C265.10852,62.3294612 249.046098,89.8530148 216.99228,144.712738 L172.494227,116.36549 L208.945659,69.5903876 C209.908306,67.6514874 209.88045,66.5380423 208.862091,66.2500522 Z" id="Leg-and-Butt" fill="#89c5cc" blush:color="Bottom-500" blush:i="0.2.0.1.0.6"/></g></g><g id="Body" transform="translate(-22.000000, 155.000000) scale(1 1)" blush:width="256" blush:height="187" blush:component="Body" blush:i="0.2.0.2" blush:value="Hoodie" blush:viewBox="33.27999999999997 -4.482876712328789 212.48000000000005 185.7191780821918"><g id="Body/Hoodie" stroke="none" stroke-width="1" fill="none" fill-rule="evenodd" blush:viewBox="33.27999999999997 -4.482876712328789 212.48000000000005 185.7191780821918" blush:i="0.2.0.2.0"><path d="M68.3079281,93.0198914 L89.2053198,93.1020711 C76.3021447,134.755739 69.3363474,156.856914 68.3079281,159.405597 C65.9939846,165.140133 70.8906002,173.873732 72.9845874,178.567103 C66.1645409,181.61887 66.8912241,170.316929 58.2879189,174.319492 C50.4352209,177.972846 44.4616931,184.59248 35.3890352,178.994371 C34.2736052,178.306117 33.0512757,175.714714 36.0045784,173.68967 C43.3623323,168.644547 53.9653015,159.814672 55.3979297,156.908251 C57.3515741,152.944826 61.6549068,131.648706 68.3079281,93.0198914 L68.3079281,93.0198914 Z M190.781205,92.2114854 L222.679476,115.635084 C231.330944,117.969562 238.558965,120.874047 244.363541,124.34854 C245.734683,125.597945 247.391836,128.128197 241.70538,127.690906 C236.018925,127.253615 230.01796,127.049392 229.233339,128.988954 C228.448719,130.928516 231.889854,133.24802 230.303794,135.864997 C229.246421,137.609648 224.250967,133.234999 215.31743,122.74105 L183.729774,109.642447 L190.781205,92.2114854 Z" id="SKIN" fill="#b28b67" blush:color="Skin-500" blush:i="0.2.0.2.0.0"/><path d="M122.731734,9.58031077 L131.216685,7.34914009 C165.5935,32.1628362 183.361709,84.0563407 224.996623,108.72736 L216.58973,121.240539 C147.889238,118.771641 125.383314,55.5469019 122.731734,9.58031077 Z" id="Coat-Back" fill="#28aa4d" transform="translate(173.864178, 64.294840) rotate(5.000000) translate(-173.864178, -64.294840)" blush:color="Top-700" blush:i="0.2.0.2.0.1"/><path d="M90,114 C124.671756,114 150.175573,114 166.511451,114 C170.007634,114 169.348845,108.951637 168.84345,106.404206 C163.010588,77.0037663 140.241304,45.3115155 140.241304,3.4607303 L118.1718,0 C99.917485,29.3584068 93.6048263,65.5045499 90,114 Z" id="Shirt" fill="#C7D1D9" blush:i="0.2.0.2.0.2"/><path d="M116.510031,-7.10542736e-15 C117.255457,-6.66133815e-15 117.93832,0.0466286213 118.558619,0.139885864 L125.471587,0.534739944 C145.293986,67.7151944 150.760885,112.536948 141.872285,135 L141.872285,135 L81.6511486,135.001552 C78.0833907,143.320741 74.6693386,150.320224 71.4089926,156 L71.4089926,156 L55,156 C53.4556773,106.066899 65.3273884,63.686084 90.6151334,28.8575562 C87.4099906,27.9369844 84.8714148,25.7879767 83,22.4111902 C74.933557,7.85607578 77.8467271,-0.157592785 86.4671964,-2.7917309 C95.0876658,-5.42586901 102.775319,-2.04281037e-14 116.510031,-7.10542736e-15 Z" id="Coat-Front" fill="#43d26c" blush:color="Top-500" blush:i="0.2.0.2.0.3"/><path d="M104,135 L81.6515228,135.000679 C85.8135041,125.295819 90.1846546,113.79505 94.7649742,100.498371 C96.6589721,116.343356 99.7372842,127.844605 104,135 Z" id="Shade" fill-opacity=".1" fill="#000" blush:i="0.2.0.2.0.4"/></g></g></g></g><g transform="translate(170.000000, 214.000000) scale(1 1)" blush:has-customizable-colors="true" blush:width="300" blush:height="426" id="Master/Pose/Standing" blush:component="Master/Pose/Standing" blush:i="0.3" blush:value="Standing" blush:viewBox="-1.2784090909090935 12.779999999999973 311.0795454545455 413.2199999999999"><g id="Master/Pose/Standing" stroke="none" stroke-width="1" fill="none" fill-rule="evenodd" blush:has-customizable-colors="true" blush:viewBox="-1.2784090909090935 12.779999999999973 311.0795454545455 413.2199999999999" blush:i="0.3.0"><g id="Head/Front" transform="translate(82.000000, 0.000000) scale(1 1)" blush:width="136" blush:height="104" blush:component="Head/Front" blush:i="0.3.0.0" blush:value="Bun and Mullet" blush:viewBox="36.72 9.801047120418843 59.839999999999975 94.60732984293193"><g id="Head/Front/Bun and Mullet" stroke="none" stroke-width="1" fill="none" fill-rule="evenodd" blush:viewBox="36.72 9.801047120418843 59.839999999999975 94.60732984293193" blush:i="0.3.0.0.0"><g id="Head" transform="translate(54.000000, 31.000000)" fill="#b28b67" blush:color="Skin-500" blush:i="0.3.0.0.0.0"><path d="M38.1433414,9.13393292 C43.9381521,19.9350547 43.249578,47.3329958 35.7603014,49.2634576 C32.773664,50.0333035 26.4113241,48.1475566 19.935865,44.2446031 L24,73 L0,73 L8.26160177,34.4893378 C3.65406109,29.0807313 0.535660132,22.452516 1.05677633,15.0254539 C2.55833022,-6.37502057 32.3485306,-1.66718886 38.1433414,9.13393292 Z" id="SKIN" blush:i="0.3.0.0.0.0.0"/></g><path d="M82.6634951,28.3699763 C66,22.1431398 52.9320115,34.1745295 51.1990566,36.1553256 C49.36223,38.2548487 48.1395162,40.8784262 47.2353419,43.5466625 C46.2532361,46.4450442 45.6454006,49.4566043 45.4209456,52.525076 C45.2077438,55.4404668 45.187993,58.5235291 45.8714634,61.3766879 C46.5108389,64.0448435 47.8781623,66.233684 50.1607604,67.6222954 C51.2063292,68.2583997 52.331284,68.7362639 53.4627459,69.1730163 C54.5778253,69.6034004 55.6962731,70.021854 56.8643276,70.2633656 C59.0749653,70.7202709 61.6221325,70.641836 63.3249903,68.8822511 C63.9387204,68.2479202 64.6136933,67.450835 65.0614552,66.675918 C65.2224473,66.3972445 65.3195173,66.2149822 65.1239229,65.9425963 C64.8895924,65.6163621 64.5105756,65.3663863 64.2095669,65.1111707 C62.493006,63.6560549 61.4304424,61.7134822 61.1625814,59.4049338 C60.8908162,57.0626093 61.5200101,54.03928 63.7973259,53.0170472 C66.6084499,51.7551569 69.7042766,53.2035819 72.2028323,54.5537417 C73.264707,50.805958 75.4450295,47.4314855 78.8633764,45.7123675 C82.6451998,43.8105035 86.9847925,43.5879355 90.871188,41.9561196 C91.8839153,41.5308947 92.9153983,41.0481938 93.6610301,40.1817828 C93.9726032,39.8196765 94.3381465,39.3499541 94.4625461,38.871042 C94.625988,38.2419509 94.220254,37.7145107 93.9068437,37.2240711 C92.2450186,34.623629 89.0104959,30.7417318 82.6634951,28.3699763 Z" id="hair" fill="#4a312c" blush:color="Hair-500" blush:i="0.3.0.0.0.1"/><circle id="Oval" fill="#4a312c" cx="55" cy="25" r="15" blush:color="Hair-500" blush:i="0.3.0.0.0.2"/><path d="M51.9332952,66.1298903 C46.5324984,78.9058701 41.5557826,87.401027 37.0031476,91.6153611 C39.0010492,95.8491182 45.3018292,97.7112585 55.9054875,97.2017819 L61.9024912,69.1410521 L51.9332952,66.1298903 Z" id="Path-5" fill="#4a312c" blush:color="Hair-500" blush:i="0.3.0.0.0.3"/></g></g><g id="Bottom/Standing" transform="translate(0.000000, 187.000000) scale(1 1)" blush:width="300" blush:height="239" blush:component="Bottom/Standing" blush:i="0.3.0.1" blush:value="Sprint" blush:viewBox="24 -0.6005025125627981 241.50000000000006 240.2010050251256"><g id="Bottom/Standing/Sprint" stroke="none" stroke-width="1" fill="none" fill-rule="evenodd" blush:viewBox="24 -0.6005025125627981 241.50000000000006 240.2010050251256" blush:i="0.3.0.1.0"><path d="M207.469522,-9.65840194 C188.34471,5.93412613 195.620321,142.644251 194.343793,144.365431 C193.776447,145.1304 163.468239,151.639612 103.419169,163.893066 L106.01112,174.474064 C176.253239,170.987921 213.421261,166.637951 217.515185,161.424153 C223.376511,153.959489 230.620797,112.212202 239.248044,36.1822931 L207.469522,-9.65840194 Z" id="SKIN" fill="#b28b67" transform="translate(171.333606, 82.407831) rotate(-55.000000) translate(-171.333606, -82.407831)" blush:color="Skin-500" blush:i="0.3.0.1.0.0"/><path d="M207.469522,-9.65840194 C188.34471,5.93412613 195.620321,142.644251 194.343793,144.365431 C193.776447,145.1304 163.468239,151.639612 103.419169,163.893066 L106.01112,174.474064 C176.253239,170.987921 213.421261,166.637951 217.515185,161.424153 C223.376511,153.959489 230.620797,112.212202 239.248044,36.1822931 L207.469522,-9.65840194 Z" id="shadow" fill-opacity=".1" fill="#000" transform="translate(171.333606, 82.407831) rotate(-55.000000) translate(-171.333606, -82.407831)" blush:i="0.3.0.1.0.1"/><path d="M113.540088,152.75781 L118.105527,169.799273 C170.465638,175.811529 204.983252,168.36956 217.132934,156.81223 C225.232723,149.107343 232.495664,107.473517 238.921759,31.9107522 L204.926407,-16.6396419 C159.401042,17.7063231 186.537309,130.140454 185.373895,132.713083 C184.210481,135.285712 156.597106,137.319958 113.540088,152.75781 Z" id="Pant" fill="#191847" transform="translate(176.230924, 77.646617) rotate(-55.000000) translate(-176.230924, -77.646617)" blush:color="Bottom-700" blush:i="0.3.0.1.0.2"/><g id="Right" transform="translate(219.664877, 196.035191) rotate(20.000000) translate(-219.664877, -196.035191) translate(190.664877, 185.535191)" fill="#E4E4E4" blush:i="0.3.0.1.0.3"><path d="M1.67813181,6.40192425 C0.559377268,9.38841089 4.54747351e-13,11.6229931 4.54747351e-13,13.1056708 C4.54747351e-13,14.908957 0.300414205,17.5404001 0.901242614,21 C2.99318117,21 21.7937852,21 57.3030548,21 C58.768738,16.1545073 57.9226607,13.5385816 54.7648228,13.1522232 C51.606985,12.7658647 48.9837155,12.4170139 46.8950143,12.1056708 L20.6799926,0.41888346 C20.1755635,0.194006431 19.584344,0.4206282 19.359467,0.925057349 C19.35562,0.933686736 19.3518954,0.94237021 19.3482945,0.951105155 L17.6632131,5.03869504 L17.6632131,5.03869504 C14.7398812,6.40265216 12.3643706,7.08463071 10.5366811,7.08463071 C9.05172687,7.08463071 7.00099246,6.48490544 4.38447792,5.28545491 L4.38448339,5.28544297 C3.38038273,4.82514778 2.19325534,5.26598921 1.73296014,6.27008987 C1.71312074,6.31336808 1.69483298,6.35734088 1.67813181,6.40192425 Z" id="shoe" blush:i="0.3.0.1.0.3.0"/></g><polygon id="SKIN" fill="#b28b67" points="130 0 78.2540376 124.226909 27.3958106 229.25029 39.3949124 229.25029 170.673688 0" blush:color="Skin-500" blush:i="0.3.0.1.0.4"/><g id="Left" transform="translate(25.000000, 218.000000)" fill="#E4E4E4" blush:i="0.3.0.1.0.5"><path d="M1.67813181,6.40192425 C0.559377268,9.38841089 0,11.6229931 0,13.1056708 C0,14.908957 0.300414205,17.5404001 0.901242614,21 C2.99318117,21 21.7937852,21 57.3030548,21 C58.768738,16.1545073 57.9226607,13.5385816 54.7648228,13.1522232 C51.606985,12.7658647 48.9837155,12.4170139 46.8950143,12.1056708 L20.6799926,0.41888346 C20.1755635,0.194006431 19.584344,0.4206282 19.359467,0.925057349 C19.35562,0.933686736 19.3518954,0.94237021 19.3482945,0.951105155 L17.6632131,5.03869504 L17.6632131,5.03869504 C14.7398812,6.40265216 12.3643706,7.08463071 10.5366811,7.08463071 C9.05172687,7.08463071 7.00099246,6.48490544 4.38447792,5.28545491 L4.38448339,5.28544297 C3.38038273,4.82514778 2.19325534,5.26598921 1.73296014,6.27008987 C1.71312074,6.31336808 1.69483298,6.35734088 1.67813181,6.40192425 Z" id="shoe" blush:i="0.3.0.1.0.5.0"/></g><path d="M31.9885488,207.432889 L58.6506859,212.432889 C79.2657755,182.124875 165.540767,57.851839 175,2.84217094e-14 L115.644073,2.84217094e-14 C84.0548806,41.821022 51.6389867,176.623522 31.9885488,207.432889 Z" id="Pant" fill="#393f82" blush:color="Bottom-500" blush:i="0.3.0.1.0.6"/></g></g><g id="Body" transform="translate(22.000000, 82.000000) scale(1 1)" blush:width="256" blush:height="187" blush:component="Body" blush:i="0.3.0.2" blush:value="Jacket" blush:viewBox="33.27999999999997 -0.6404109589041127 211.20000000000005 181.8767123287671"><g id="Body/Jacket" stroke="none" stroke-width="1" fill="none" fill-rule="evenodd" blush:viewBox="33.27999999999997 -0.6404109589041127 211.20000000000005 181.8767123287671" blush:i="0.3.0.2.0"><path d="M68.3079281,93.0198914 L89.2053198,93.1020711 C76.3021447,134.755739 69.3363474,156.856914 68.3079281,159.405597 C65.9939846,165.140133 70.8906002,173.873732 72.9845874,178.567103 C66.1645409,181.61887 66.8912241,170.316929 58.2879189,174.319492 C50.4352209,177.972846 44.4616931,184.59248 35.3890352,178.994371 C34.2736052,178.306117 33.0512757,175.714714 36.0045784,173.68967 C43.3623323,168.644547 53.9653015,159.814672 55.3979297,156.908251 C57.3515741,152.944826 61.6549068,131.648706 68.3079281,93.0198914 L68.3079281,93.0198914 Z M194.04441,89.1225115 L222.372314,116.757535 C230.61469,120.273345 237.368143,124.155511 242.632673,128.40403 C243.816587,129.832102 245.10547,132.568362 239.535214,131.343925 C233.964957,130.119488 228.050816,129.082079 227.003896,130.893567 C225.956977,132.705055 229.041811,135.480899 227.106974,137.851671 C225.817082,139.432186 221.479076,134.404878 214.092956,122.769747 L184.635682,105.402467 L194.04441,89.1225115 Z" id="SKIN" fill="#b28b67" blush:color="Skin-500" blush:i="0.3.0.2.0.0"/><path d="M122.01899,9.23199981 L130.503942,7.00082913 C148.576175,42.7520052 177.414525,74.1501034 217.01899,101.195124 L192.061793,137.56505 C151.33882,97.6857553 124.670571,55.1985909 122.01899,9.23199981 Z" id="Coat-Back" fill="#c5cfd6" transform="translate(169.518990, 72.282940) rotate(5.000000) translate(-169.518990, -72.282940)" blush:color="Top-700" blush:i="0.3.0.2.0.1"/><path d="M90,114 L167,114 C149.16087,70.6251468 140.241304,33.7787236 140.241304,3.4607303 L117.014208,0 C98.7598929,29.3584068 93.6048263,65.5045499 90,114 Z" id="Shirt" fill="#C7D1D9" blush:i="0.3.0.2.0.2"/><path d="M118.047752,-4.26325641e-14 C119.86198,0.0624731357 122.625282,0.175030894 126.337658,0.337673275 L126.337658,0.337673275 L131.950158,16.3768801 C132.543836,35.9324229 136.010826,75.3421183 142.351127,134.605966 L142.351127,134.605966 L91.8760675,134.60553 C92.008386,138.698782 92.2265651,142.830272 92.5306047,147 L92.5306047,147 L55,147 C60.6139164,83.6639633 81.1152373,34.6639633 116.503963,1.42108547e-14 L116.503963,1.42108547e-14 L116.522,0.017 L116.531583,-4.26325641e-14 Z" id="Coat-Front" fill="#f2f2f2" blush:color="Top-500" blush:i="0.3.0.2.0.3"/><path d="M106,135 L91.889057,134.999288 C91.2713571,116.643048 92.3783198,99.0548837 95.2099449,82.2347951 C96.6469231,107.748771 100.243477,125.3371 106,135 Z" id="Shade" fill-opacity=".1" fill="#000" blush:i="0.3.0.2.0.4"/><polygon id="Light" fill-opacity=".2" fill="#FFF" points="103.110899 104 128 92.4292718 128 104" blush:i="0.3.0.2.0.5"/></g></g></g></g></g></svg>