<svg width="16" height="17" viewBox="0 0 16 17" fill="none" xmlns="http://www.w3.org/2000/svg">
<g clip-path="url(#clip0)">
<path d="M7.99999 1.83333C10.1307 1.83333 12 3.57867 12 5.568C12 7.63 10.338 10.3227 7.99999 14.0087C5.66199 10.3227 3.99999 7.63 3.99999 5.568C3.99999 3.57867 5.86932 1.83333 7.99999 1.83333ZM7.99999 0.5C5.20132 0.5 2.66666 2.76867 2.66666 5.568C2.66666 8.36667 4.97932 11.708 7.99999 16.5C11.0207 11.708 13.3333 8.36667 13.3333 5.568C13.3333 2.76867 10.7993 0.5 7.99999 0.5V0.5ZM7.99999 7.83333C6.89532 7.83333 5.99999 6.938 5.99999 5.83333C5.99999 4.72867 6.89532 3.83333 7.99999 3.83333C9.10466 3.83333 9.99999 4.72867 9.99999 5.83333C9.99999 6.938 9.10466 7.83333 7.99999 7.83333Z" fill="#8F9BB3"/>
</g>
<defs>
<clipPath id="clip0">
<rect width="16" height="16" fill="white" transform="translate(0 0.5)"/>
</clipPath>
</defs>
</svg>
