<?xml version="1.0" standalone="no"?>
<!DOCTYPE svg PUBLIC "-//W3C//DTD SVG 20010904//EN"
 "http://www.w3.org/TR/2001/REC-SVG-20010904/DTD/svg10.dtd">
<svg version="1.0" xmlns="http://www.w3.org/2000/svg"
 width="980.000000pt" height="980.000000pt" viewBox="0 0 980.000000 980.000000"
 preserveAspectRatio="xMidYMid meet">

<g transform="translate(0.000000,980.000000) scale(0.100000,-0.100000)"
fill="#000000" stroke="none">
<path d="M4560 9789 c-1035 -75 -1998 -463 -2800 -1128 -150 -123 -501 -475
-622 -621 -534 -647 -880 -1372 -1042 -2180 -259 -1290 18 -2648 761 -3727
277 -403 628 -778 1018 -1087 680 -539 1533 -896 2400 -1005 1488 -188 2966
303 4028 1338 427 416 739 843 992 1356 477 968 621 2065 409 3125 -169 848
-553 1624 -1130 2280 -112 128 -386 398 -509 501 -762 642 -1665 1026 -2665
1134 -174 19 -664 27 -840 14z m870 -788 c1199 -163 2247 -814 2907 -1806 359
-539 576 -1117 664 -1769 30 -220 37 -669 15 -906 -52 -536 -181 -987 -423
-1470 -242 -485 -563 -903 -959 -1250 -634 -555 -1367 -886 -2218 -1002 -220
-30 -785 -33 -996 -5 -405 54 -767 148 -1105 289 -1265 528 -2191 1650 -2465
2986 -63 308 -75 441 -75 832 0 392 12 523 76 835 165 804 575 1552 1166 2125
649 631 1475 1029 2361 1140 224 28 224 28 577 25 257 -3 351 -7 475 -24z"/>
<path d="M3303 7020 c-77 -20 -113 -36 -113 -49 0 -37 119 -341 144 -369 7 -7
111 -45 231 -85 l219 -73 18 -60 c10 -32 43 -147 74 -255 l57 -197 -143 -166
c-100 -118 -147 -165 -158 -162 -10 3 -123 14 -252 26 -129 12 -244 25 -255
30 -12 4 -63 85 -129 205 -73 131 -117 200 -131 205 -57 22 -268 62 -330 64
l-69 1 -9 -45 c-11 -62 -2 -232 17 -304 49 -180 163 -364 326 -526 211 -210
405 -308 679 -342 169 -21 379 13 540 88 l75 34 37 -36 c25 -24 42 -34 51 -28
7 4 86 68 175 141 l161 133 -15 57 c-21 80 -13 219 16 295 12 32 41 86 64 120
l42 63 0 150 c-1 166 -18 257 -73 392 -112 275 -407 537 -739 656 -162 58
-371 73 -510 37z"/>
<path d="M6630 6714 c-30 -8 -72 -26 -93 -40 -20 -13 -335 -268 -700 -566
-364 -298 -667 -545 -674 -551 -8 -6 -23 -1 -44 14 -44 31 -133 38 -183 14
-71 -34 -108 -113 -92 -198 4 -22 30 -62 71 -110 36 -42 65 -80 65 -85 0 -5
-420 -356 -934 -780 l-934 -771 -123 -36 -124 -37 -143 -184 -144 -184 106
-124 c59 -69 110 -127 115 -130 5 -3 100 39 212 93 l203 99 66 121 65 121 932
770 c513 423 934 770 937 770 3 0 30 -30 62 -67 75 -90 113 -113 185 -113 65
0 109 24 146 79 28 41 31 126 7 172 -8 17 -14 32 -12 34 2 1 307 251 678 555
371 303 687 566 702 583 39 44 66 103 79 170 23 112 -34 251 -131 322 -88 65
-201 87 -300 59z"/>
<path d="M5845 4563 c-137 -161 -412 -217 -605 -124 -24 11 -48 17 -54 14 -33
-20 -226 -188 -224 -194 2 -5 353 -324 781 -711 l778 -703 190 -44 c104 -24
191 -42 193 -40 1 2 81 96 177 209 96 113 195 230 221 260 l47 55 -75 170
c-41 94 -85 180 -97 191 -34 33 -1275 964 -1284 964 -4 -1 -26 -21 -48 -47z"/>
</g>
</svg>
